<svg width="1310" height="660" viewBox="0 0 1310 660" fill="none" xmlns="http://www.w3.org/2000/svg">
<rect x="2.5" y="2.5" width="1305" height="655" rx="22.5" fill="white" stroke="black" stroke-width="5"/>
<line y1="-2.5" x2="650.001" y2="-2.5" transform="matrix(0.00155279 0.999999 -0.999997 0.00257599 944 5)" stroke="black" stroke-width="5"/>
<line y1="-2.5" x2="650.001" y2="-2.5" transform="matrix(0.00155279 0.999999 -0.999997 0.00257599 168 5)" stroke="black" stroke-width="5"/>
<line y1="-2.5" x2="650.001" y2="-2.5" transform="matrix(0.00155279 0.999999 -0.999997 0.00257599 379 5)" stroke="black" stroke-width="5"/>
<line y1="-2.5" x2="650.001" y2="-2.5" transform="matrix(0.00155279 0.999999 -0.999997 0.00257599 578 5)" stroke="black" stroke-width="5"/>
<line y1="-2.5" x2="650.001" y2="-2.5" transform="matrix(0.00155279 0.999999 -0.999997 0.00257599 771 5)" stroke="black" stroke-width="5"/>
<line y1="-2.5" x2="650.001" y2="-2.5" transform="matrix(0.00155279 0.999999 -0.999997 0.00257599 1132 5)" stroke="black" stroke-width="5"/>
<line y1="-2.5" x2="1304" y2="-2.5" transform="matrix(1 -0.000688409 0.00102584 1 3 56.6873)" stroke="black" stroke-width="5"/>
<line y1="-2.5" x2="1304" y2="-2.5" transform="matrix(0.999999 -0.00117237 0.00174703 0.999999 3 104.831)" stroke="black" stroke-width="5"/>
<line y1="-2.5" x2="1300" y2="-2.5" transform="matrix(0.999999 -0.00163636 0.00326446 0.999995 5 152.975)" stroke="black" stroke-width="5"/>
<line y1="-2.5" x2="1300" y2="-2.5" transform="matrix(0.999999 -0.00163636 0.00326446 0.999995 5 201.119)" stroke="black" stroke-width="5"/>
<line y1="-2.5" x2="1300" y2="-2.5" transform="matrix(0.999999 -0.00163636 0.00326446 0.999995 5 249.263)" stroke="black" stroke-width="5"/>
<line y1="-2.5" x2="1300" y2="-2.5" transform="matrix(0.999999 -0.00163636 0.00326446 0.999995 7 297.407)" stroke="black" stroke-width="5"/>
<line y1="-2.5" x2="1304" y2="-2.5" transform="matrix(1 -0.000688409 0.00102584 1 5 343.898)" stroke="black" stroke-width="5"/>
<line y1="-2.5" x2="1304" y2="-2.5" transform="matrix(0.999999 -0.00117237 0.00174703 0.999999 5 392.042)" stroke="black" stroke-width="5"/>
<line y1="-2.5" x2="1300" y2="-2.5" transform="matrix(0.999999 -0.00163636 0.00326446 0.999995 3 440.127)" stroke="black" stroke-width="5"/>
<line y1="-2.5" x2="1300" y2="-2.5" transform="matrix(0.999999 -0.00163636 0.00326446 0.999995 3 488.271)" stroke="black" stroke-width="5"/>
<line y1="-2.5" x2="1300" y2="-2.5" transform="matrix(0.999999 -0.00163636 0.00326446 0.999995 3 536.415)" stroke="black" stroke-width="5"/>
<line y1="-2.5" x2="1300" y2="-2.5" transform="matrix(0.999999 -0.00163636 0.00326446 0.999995 5 584.559)" stroke="black" stroke-width="5"/>
</svg>
